PathFileType  4	(X/Y/Z) C:\Users\antoi\Documents\MyRepositories\mobilecap\ResultsAnalysis
DataRate	CameraRate	NumFrames	NumMarkers	Units	OrigDataRate	OrigDataStartFrame	OrigNumFrames
100.0	100.0	4	51	mm	100.0	1	306
Frame#	Time	r_knee			r_shank_antsup			r_ankle			r_calc			r_5meta			r_toe			L_knee			L_shank_antsup			L_ankle			L_calc			L_5meta			L_toe			r_sh2			r_sh3			r_sh4			L_sh2			L_sh3			r_thigh1			r_thigh2			r_thigh3			r_thigh4			r_thigh5			L_thigh1			L_thigh2			L_thigh3			L_thigh4			r.ASIS			r.PSIS			L.ASIS			L.PSIS			C7			R_Shoulder			L_Shoulder			R_Sternum			L_Sternum			R_humerus			R_elbow_med			R_elbow_lat			R_forearm			R_wrist_radius			R_wrist_ulna			L_humerus			L_elbow_med			L_elbow_lat			L_forearm			L_wrist_radius			L_wrist_ulna			R_HJC			L_HJC			R_HJC_reg			L_HJC_reg			
		X1	Y1	Z1	X2	Y2	Z2	X3	Y3	Z3	X4	Y4	Z4	X5	Y5	Z5	X6	Y6	Z6	X7	Y7	Z7	X8	Y8	Z8	X9	Y9	Z9	X10	Y10	Z10	X11	Y11	Z11	X12	Y12	Z12	X13	Y13	Z13	X14	Y14	Z14	X15	Y15	Z15	X16	Y16	Z16	X17	Y17	Z17	X18	Y18	Z18	X19	Y19	Z19	X20	Y20	Z20	X21	Y21	Z21	X22	Y22	Z22	X23	Y23	Z23	X24	Y24	Z24	X25	Y25	Z25	X26	Y26	Z26	X27	Y27	Z27	X28	Y28	Z28	X29	Y29	Z29	X30	Y30	Z30	X31	Y31	Z31	X32	Y32	Z32	X33	Y33	Z33	X34	Y34	Z34	X35	Y35	Z35	X36	Y36	Z36	X37	Y37	Z37	X38	Y38	Z38	X39	Y39	Z39	X40	Y40	Z40	X41	Y41	Z41	X42	Y42	Z42	X43	Y43	Z43	X44	Y44	Z44	X45	Y45	Z45	X46	Y46	Z46	X47	Y47	Z47	X48	Y48	Z48	X49	Y49	Z49	X50	Y50	Z50	X51	Y51	Z51	

1	0.00000000	-1211.49509	781.67940	-415.32283	-1178.13011	664.74571	-430.31568	-1258.03857	399.35900	-452.80014	-1302.82240	358.31826	-507.08480	-1142.82716	347.89730	-419.59566	-1106.68713	366.61620	-462.85963	-1197.71948	784.28051	-739.44142	-1163.68332	677.09384	-697.26036	-1261.01892	396.20477	-723.27603	-1306.62928	361.23598	-685.87564	-1140.35461	346.75653	-744.01923	-1103.45385	366.63248	-689.31385	-1194.40489	554.48076	-445.64857	-1236.92355	666.05858	-382.59610	-1267.09536	559.85159	-407.02537	-1211.31028	704.21421	-766.70796	-1229.86045	583.78638	-779.85101	-1132.31128	1085.23619	-419.84177	-1125.40183	973.96033	-418.65070	-1169.04330	945.47895	-376.30845	-1235.15457	1073.36116	-376.58144	-1223.63437	958.89842	-373.25171	-1141.18979	1078.59327	-745.70150	-1125.22885	937.85573	-744.90162	-1251.28062	1066.76585	-782.71372	-1233.73290	926.25000	-770.69624	-1118.12486	1240.99146	-456.11947	-1299.02610	1302.66846	-522.76312	-1117.14867	1241.97374	-702.08459	-1301.71237	1304.63355	-640.02168	-1264.98055	1759.09057	-572.57572	-1218.00561	1717.43615	-420.68266	-1214.84175	1726.16637	-729.29367	-1148.07828	1696.92101	-551.34777	-1146.67139	1692.72830	-594.06823	-1196.06759	1589.74452	-358.60263	-1270.23296	1388.78257	-403.43059	-1234.61242	1397.32747	-336.28834	-1170.22849	1287.38660	-326.61589	-1129.61145	1191.04807	-334.55468	-1160.26220	1180.99267	-313.39383	-1189.39071	1576.02373	-794.39236	-1257.42146	1384.37813	-736.03346	-1232.41952	1391.36235	-810.63479	-1172.26129	1312.69261	-830.84339	-1116.64739	1192.17146	-818.05260	-1142.21990	1182.81802	-836.47006	-1216.04238	1179.21762	-482.58399	-1211.82709	1176.45311	-671.89467	-1195.95867	1177.72976	-489.87076	-1199.67620	1180.44925	-652.14495	
2	0.01000000	-1211.42581	781.71240	-415.34422	-1178.05180	664.66975	-430.29069	-1257.99733	399.45037	-452.79014	-1302.88463	358.26405	-507.07570	-1142.82896	347.92576	-419.58927	-1106.67091	366.64238	-462.88043	-1197.70607	784.27250	-739.42781	-1163.68842	677.05101	-697.35513	-1261.02704	396.19846	-723.26451	-1306.63347	361.22805	-685.88631	-1140.34414	346.69926	-743.98508	-1103.52469	366.62938	-689.34065	-1194.47299	554.40679	-445.58296	-1236.90156	666.04151	-382.70219	-1267.49446	561.07118	-406.81275	-1211.31305	704.09107	-766.57312	-1229.88836	583.78411	-779.86071	-1132.15856	1085.28309	-419.80986	-1125.39381	973.96230	-418.69311	-1169.01305	945.47646	-376.41717	-1235.09055	1073.38439	-376.52294	-1223.62874	958.90265	-373.24155	-1141.53067	1078.87482	-745.98261	-1125.25678	938.18624	-745.18300	-1251.28175	1066.79709	-782.71691	-1233.73387	926.25509	-770.71395	-1117.98819	1240.97641	-456.00018	-1298.95866	1302.66737	-522.77976	-1117.13931	1241.95067	-702.12628	-1301.68895	1304.67347	-639.92272	-1264.81640	1759.32916	-572.24750	-1217.63168	1717.42835	-420.94515	-1214.45543	1726.28309	-729.27641	-1147.62424	1697.02899	-551.34660	-1146.35408	1692.78297	-594.11899	-1195.94678	1589.76345	-358.50874	-1270.72215	1389.21794	-403.12482	-1235.04544	1397.59146	-335.98982	-1170.84631	1287.44639	-326.61362	-1130.26168	1191.05804	-334.68589	-1160.79923	1181.09805	-313.62210	-1189.42645	1576.09155	-794.50413	-1258.04858	1384.76811	-736.23940	-1232.77738	1391.64670	-810.75909	-1172.67284	1312.65349	-830.74173	-1117.19948	1192.25591	-818.06565	-1142.74826	1183.06333	-836.76151	-1215.96947	1179.22271	-482.53832	-1211.80735	1176.45005	-671.85006	-1195.86461	1177.62355	-489.77177	-1199.64922	1180.40432	-652.14934	
3	0.02000000	-1211.34475	781.73582	-415.34105	-1177.97681	664.62639	-430.31786	-1258.05812	399.41093	-452.80093	-1302.90408	358.22031	-507.05873	-1142.83153	347.94782	-419.59943	-1106.67568	366.65306	-462.88482	-1197.68809	784.27559	-739.43240	-1163.68198	677.03190	-697.39366	-1261.03829	396.19461	-723.25320	-1306.63154	361.19005	-685.85287	-1140.34055	346.68011	-743.96789	-1103.58109	366.60134	-689.33815	-1194.48607	554.35875	-445.54986	-1236.86289	666.01758	-382.71423	-1267.30633	560.69405	-406.86591	-1211.30419	704.04343	-766.52722	-1229.95242	583.70515	-779.77261	-1132.10026	1085.29042	-419.80313	-1125.37911	973.97872	-418.71324	-1168.84127	945.43402	-376.28242	-1234.99216	1073.35375	-376.51510	-1223.57986	958.93824	-373.23814	-1141.46383	1078.83686	-745.68022	-1125.26012	938.15270	-745.17024	-1251.27080	1066.78401	-782.50927	-1233.74618	926.24301	-770.71926	-1117.88853	1240.93225	-455.97609	-1298.90224	1302.68261	-522.78413	-1117.12186	1241.92258	-702.14943	-1301.65226	1304.71974	-639.90860	-1264.32415	1759.18293	-572.37457	-1217.27147	1717.49695	-420.90979	-1214.10838	1726.42889	-729.42128	-1147.27523	1697.14292	-551.34543	-1145.98737	1692.85597	-593.83420	-1195.81267	1589.82110	-358.37689	-1271.17713	1389.54418	-403.05393	-1235.48365	1397.80385	-335.90990	-1171.43896	1287.48633	-326.55712	-1130.90802	1191.04650	-334.82588	-1161.45088	1181.11728	-313.77998	-1189.22546	1576.26838	-794.73631	-1258.73934	1385.23512	-736.58617	-1233.15776	1391.96631	-811.01374	-1173.11486	1312.81195	-830.71692	-1117.66345	1192.35086	-818.04781	-1143.33803	1183.19403	-836.84503	-1215.92942	1179.21706	-482.53940	-1211.79965	1176.45308	-671.85198	-1195.81173	1177.56459	-489.75886	-1199.62495	1180.38927	-652.16606	
4	0.03000000	-1211.27827	781.74379	-415.33576	-1177.91964	664.61017	-430.35284	-1258.13737	399.29362	-452.81206	-1302.88263	358.16974	-507.04113	-1142.83989	347.95959	-419.61920	-1106.69341	366.64956	-462.87359	-1197.70413	784.27183	-739.43806	-1163.66445	677.02529	-697.39182	-1261.04877	396.18923	-723.24973	-1306.62724	361.17396	-685.83752	-1140.35322	346.72124	-743.99169	-1103.58059	366.58511	-689.32120	-1194.44264	554.34881	-445.56441	-1236.81725	665.95613	-382.72586	-1266.95531	559.82839	-407.00551	-1211.30365	704.04400	-766.54866	-1230.03752	583.58567	-779.62674	-1132.11204	1085.28397	-419.80187	-1125.33900	973.98775	-418.71115	-1168.58805	945.38748	-375.99516	-1234.90978	1073.30391	-376.56242	-1223.51284	958.98693	-373.21361	-1141.17532	1078.59517	-745.14690	-1125.27169	937.88890	-745.02666	-1251.24557	1066.78084	-782.19093	-1233.79627	926.19454	-770.66840	-1117.82723	1240.90124	-455.98528	-1298.83038	1302.70941	-522.74822	-1117.10120	1241.87371	-702.19034	-1301.59851	1304.74890	-639.91864	-1263.73747	1758.97033	-572.59638	-1216.88363	1717.63075	-420.68141	-1213.79774	1726.59077	-729.57912	-1146.95236	1697.24317	-551.28189	-1145.52878	1692.94989	-593.44625	-1195.64498	1589.90277	-358.14015	-1271.02711	1390.00817	-403.35950	-1235.97965	1397.99692	-335.85436	-1172.04727	1287.53337	-326.37849	-1131.43079	1191.19834	-334.59221	-1162.22690	1181.11146	-313.82368	-1189.05498	1576.50210	-794.93146	-1259.32093	1385.73931	-736.80289	-1233.59184	1392.34650	-811.19190	-1173.58852	1313.04963	-830.77901	-1118.14269	1192.49403	-818.07393	-1143.96508	1183.25926	-836.84527	-1215.89338	1179.21833	-482.53967	-1211.80108	1176.44382	-671.85290	-1195.78067	1177.54010	-489.76217	-1199.61799	1180.36732	-652.18954	
